<svg width="0" height="0" class="hidden">
  <symbol xmlns="http://www.w3.org/2000/svg" viewBox="0 0 384.97 384.97" id="menu">
    <path d="M12.03 120.303h360.909c6.641 0 12.03-5.39 12.03-12.03 0-6.641-5.39-12.03-12.03-12.03H12.03c-6.641 0-12.03 5.39-12.03 12.03s5.39 12.03 12.03 12.03zm360.909 60.152H12.03c-6.641 0-12.03 5.39-12.03 12.03s5.39 12.03 12.03 12.03h360.909c6.641 0 12.03-5.39 12.03-12.03s-5.389-12.03-12.03-12.03zm0 84.212H132.333c-6.641 0-12.03 5.39-12.03 12.03 0 6.641 5.39 12.03 12.03 12.03h240.606c6.641 0 12.03-5.39 12.03-12.03.001-6.641-5.389-12.03-12.03-12.03z"></path>
  </symbol>
  <symbol xmlns="http://www.w3.org/2000/svg" viewBox="0 0 459 459" id="filter">
    <path d="M178.5 382.5h102v-51h-102v51zM0 76.5v51h459v-51H0zM76.5 255h306v-51h-306v51z"></path>
  </symbol>
    <symbol xmlns="http://www.w3.org/2000/svg" viewBox="0 0 330 330" id="down-arrow-bottom">
    <path d="M325.607 79.393c-5.857-5.857-15.355-5.858-21.213.001l-139.39 139.393L25.607 79.393c-5.857-5.857-15.355-5.858-21.213.001-5.858 5.858-5.858 15.355 0 21.213l150.004 150a14.999 14.999 0 0021.212-.001l149.996-150c5.859-5.857 5.859-15.355.001-21.213z"></path>
  </symbol>
    <symbol xmlns="http://www.w3.org/2000/svg" viewBox="0 0 24 24" id="warning">
    <path d="M12 24C5.383 24 0 18.617 0 12S5.383 0 12 0s12 5.383 12 12-5.383 12-12 12zm0-23C5.935 1 1 5.935 1 12s4.935 11 11 11 11-4.935 11-11S18.065 1 12 1z"></path>
    <path d="M12 19c-.827 0-1.5-.673-1.5-1.5S11.173 16 12 16s1.5.673 1.5 1.5S12.827 19 12 19zm0-2a.5.5 0 100 1 .5.5 0 000-1zm0-3a.5.5 0 01-.5-.5v-8a.5.5 0 011 0v8a.5.5 0 01-.5.5z"></path>
  </symbol>
   <symbol xmlns="http://www.w3.org/2000/svg" viewBox="0 0 512 512" id="settings">
    <path d="M272.066 512h-32.133c-25.989 0-47.134-21.144-47.134-47.133v-10.871a206.698 206.698 0 01-32.097-13.323l-7.704 7.704c-18.659 18.682-48.548 18.134-66.665-.007l-22.711-22.71c-18.149-18.129-18.671-48.008.006-66.665l7.698-7.698A206.714 206.714 0 0158.003 319.2h-10.87C21.145 319.2 0 298.056 0 272.067v-32.134C0 213.944 21.145 192.8 47.134 192.8h10.87a206.755 206.755 0 0113.323-32.097L63.623 153c-18.666-18.646-18.151-48.528.006-66.665l22.713-22.712c18.159-18.184 48.041-18.638 66.664.006l7.697 7.697A206.893 206.893 0 01192.8 58.003v-10.87C192.8 21.144 213.944 0 239.934 0h32.133C298.056 0 319.2 21.144 319.2 47.133v10.871a206.698 206.698 0 0132.097 13.323l7.704-7.704c18.659-18.682 48.548-18.134 66.665.007l22.711 22.71c18.149 18.129 18.671 48.008-.006 66.665l-7.698 7.698a206.714 206.714 0 0113.323 32.097h10.87c25.989 0 47.134 21.144 47.134 47.133v32.134c0 25.989-21.145 47.133-47.134 47.133h-10.87a206.755 206.755 0 01-13.323 32.097l7.704 7.704c18.666 18.646 18.151 48.528-.006 66.665l-22.713 22.712c-18.159 18.184-48.041 18.638-66.664-.006l-7.697-7.697a206.893 206.893 0 01-32.097 13.323v10.871c0 25.987-21.144 47.131-47.134 47.131zM165.717 409.17a176.812 176.812 0 0045.831 19.025 14.999 14.999 0 0111.252 14.524v22.148c0 9.447 7.687 17.133 17.134 17.133h32.133c9.447 0 17.134-7.686 17.134-17.133v-22.148a14.999 14.999 0 0111.252-14.524 176.812 176.812 0 0045.831-19.025 15 15 0 0118.243 2.305l15.688 15.689c6.764 6.772 17.626 6.615 24.224.007l22.727-22.726c6.582-6.574 6.802-17.438.006-24.225l-15.695-15.695a15 15 0 01-2.305-18.242 176.78 176.78 0 0019.024-45.831 15 15 0 0114.524-11.251h22.147c9.447 0 17.134-7.686 17.134-17.133v-32.134c0-9.447-7.687-17.133-17.134-17.133H442.72a15 15 0 01-14.524-11.251 176.815 176.815 0 00-19.024-45.831 15 15 0 012.305-18.242l15.689-15.689c6.782-6.774 6.605-17.634.006-24.225l-22.725-22.725c-6.587-6.596-17.451-6.789-24.225-.006l-15.694 15.695a15 15 0 01-18.243 2.305 176.812 176.812 0 00-45.831-19.025 14.999 14.999 0 01-11.252-14.524v-22.15c0-9.447-7.687-17.133-17.134-17.133h-32.133c-9.447 0-17.134 7.686-17.134 17.133v22.148a14.999 14.999 0 01-11.252 14.524 176.812 176.812 0 00-45.831 19.025 15.002 15.002 0 01-18.243-2.305l-15.688-15.689c-6.764-6.772-17.627-6.615-24.224-.007l-22.727 22.726c-6.582 6.574-6.802 17.437-.006 24.225l15.695 15.695a15 15 0 012.305 18.242 176.78 176.78 0 00-19.024 45.831 15 15 0 01-14.524 11.251H47.134C37.687 222.8 30 230.486 30 239.933v32.134c0 9.447 7.687 17.133 17.134 17.133h22.147a15 15 0 0114.524 11.251 176.815 176.815 0 0019.024 45.831 15 15 0 01-2.305 18.242l-15.689 15.689c-6.782 6.774-6.605 17.634-.006 24.225l22.725 22.725c6.587 6.596 17.451 6.789 24.225.006l15.694-15.695c3.568-3.567 10.991-6.594 18.244-2.304z"></path>
    <path d="M256 367.4c-61.427 0-111.4-49.974-111.4-111.4S194.573 144.6 256 144.6 367.4 194.574 367.4 256 317.427 367.4 256 367.4zm0-192.8c-44.885 0-81.4 36.516-81.4 81.4s36.516 81.4 81.4 81.4 81.4-36.516 81.4-81.4-36.515-81.4-81.4-81.4z"></path>
  </symbol>
  <symbol xmlns="http://www.w3.org/2000/svg" viewBox="0 0 511.788 511.788" id="alarm">
    <path d="M506.143 432.455L294.544 36.084c-7.578-14.194-22.026-22.668-38.65-22.668-16.623 0-31.072 8.474-38.649 22.668L5.645 432.456c-7.64 14.314-7.52 30.291.33 43.836 8.015 13.826 22.34 22.081 38.321 22.081h423.196c15.982 0 30.308-8.255 38.32-22.081 7.851-13.544 7.972-29.523.331-43.837zm-26.286 28.793c-2.701 4.661-6.977 7.125-12.364 7.125H44.296c-5.388 0-9.664-2.464-12.366-7.125-2.642-4.558-2.58-9.492.181-14.664L243.709 50.213c3.157-5.914 8.989-6.797 12.185-6.797s9.028.883 12.186 6.797v-.001l211.599 396.371c2.76 5.173 2.821 10.106.178 14.665z"></path>
    <path d="M255.894 348.393c-24.813 0-45 20.187-45 45s20.187 44.999 45 44.999 45-20.187 45-44.999c0-24.813-20.187-45-45-45zm0 59.999c-8.271 0-15-6.729-15-14.999 0-8.271 6.729-15 15-15s15 6.729 15 15-6.729 14.999-15 14.999zm0-266.499c-24.813 0-45 20.187-45 45v86.5c0 24.813 20.188 45 45.001 45s44.999-20.187 44.999-45v-86.5c0-24.813-20.187-45-45-45zm15 131.5c0 8.271-6.729 15-15 15s-15-6.729-15-15v-86.5c0-8.271 6.729-15 15-15h.001c8.271 0 14.999 6.729 14.999 15v86.5z"></path>
  </symbol>
  <symbol xmlns="http://www.w3.org/2000/svg" viewBox="0 0 512 512" id="bell">
    <path d="M450.201 407.453c-1.505-.977-12.832-8.912-24.174-32.917-20.829-44.082-25.201-106.18-25.201-150.511 0-.193-.004-.384-.011-.576-.227-58.589-35.31-109.095-85.514-131.756V57.036C315.301 25.586 289.757 0 258.359 0h-4.719c-31.398 0-56.942 25.586-56.942 57.036v34.655c-50.372 22.734-85.525 73.498-85.525 132.334 0 44.331-4.372 106.428-25.201 150.511-11.341 24.004-22.668 31.939-24.174 32.917-6.342 2.935-9.469 9.715-8.01 16.586 1.473 6.939 7.959 11.723 15.042 11.723h109.947C179.391 477.903 213.785 512 256 512s76.609-34.097 77.223-76.238H443.17c7.082 0 13.569-4.784 15.042-11.723 1.457-6.871-1.669-13.652-8.011-16.586zM226.699 57.036c0-14.881 12.086-26.987 26.942-26.987h4.719c14.856 0 26.942 12.106 26.942 26.987v24.917a144.658 144.658 0 00-29.306-2.987A144.695 144.695 0 00226.7 81.95V57.036zM256 481.951c-25.673 0-46.614-20.617-47.223-46.188h94.445c-.608 25.57-21.549 46.188-47.222 46.188zm60.4-76.239H103.015c2.595-4.044 5.236-8.623 7.861-13.798 20.104-39.643 30.298-96.129 30.298-167.889 0-63.417 51.509-115.01 114.821-115.01s114.821 51.593 114.821 115.06c0 .185.003.369.01.553.057 71.472 10.25 127.755 30.298 167.286 2.625 5.176 5.267 9.754 7.861 13.798z"></path>
  </symbol>
    <symbol xmlns="http://www.w3.org/2000/svg" viewBox="0 0 512 512" id="search">
    <path d="M141.367 116.518c-7.384-7.39-19.364-7.39-26.748 0-27.416 27.416-40.891 65.608-36.975 104.79.977 9.761 9.2 17.037 18.803 17.037.631 0 1.267-.032 1.898-.095 10.398-1.04 17.983-10.316 16.943-20.707-2.787-27.845 6.722-54.92 26.079-74.278 7.39-7.383 7.39-19.364 0-26.747z"></path>
    <path d="M216.276 0C97.021 0 0 97.021 0 216.276s97.021 216.276 216.276 216.276 216.276-97.021 216.276-216.276S335.53 0 216.276 0zm0 394.719c-98.396 0-178.443-80.047-178.443-178.443S117.88 37.833 216.276 37.833c98.39 0 178.443 80.047 178.443 178.443s-80.047 178.443-178.443 178.443z"></path>
    <path d="M506.458 479.71L368.999 342.252c-7.39-7.39-19.358-7.39-26.748 0-7.39 7.384-7.39 19.364 0 26.748L479.71 506.458A18.848 18.848 0 00493.084 512c4.843 0 9.679-1.847 13.374-5.542 7.389-7.384 7.389-19.364 0-26.748z"></path>
  </symbol>
  <symbol xmlns="http://www.w3.org/2000/svg" viewBox="0 0 512 512" id="refresh">
    <path d="M408.973 142.689c-40.86-40.86-95.188-63.363-152.973-63.363h-31.717l50.907-51.032L246.826 0 147.68 99.389l97.852 99.488 28.563-28.093-50.551-51.396H256c97.198 0 176.275 79.076 176.275 176.275S353.198 471.938 256 471.938 79.725 392.861 79.725 295.659v-20.031l-40.062.004v20.031c0 57.786 22.503 112.113 63.364 152.973C143.887 489.497 198.215 512 256 512c57.785 0 112.113-22.503 152.973-63.364 40.861-40.861 63.364-95.188 63.364-152.973s-22.503-112.113-63.364-152.974z"></path>
  </symbol>
</svg>