<svg width="0" height="0" class="hidden">
  <symbol xmlns="http://www.w3.org/2000/svg" viewBox="0 0 384.97 384.97" id="menu">
    <path d="M12.03 120.303h360.909c6.641 0 12.03-5.39 12.03-12.03 0-6.641-5.39-12.03-12.03-12.03H12.03c-6.641 0-12.03 5.39-12.03 12.03s5.39 12.03 12.03 12.03zm360.909 60.152H12.03c-6.641 0-12.03 5.39-12.03 12.03s5.39 12.03 12.03 12.03h360.909c6.641 0 12.03-5.39 12.03-12.03s-5.389-12.03-12.03-12.03zm0 84.212H132.333c-6.641 0-12.03 5.39-12.03 12.03 0 6.641 5.39 12.03 12.03 12.03h240.606c6.641 0 12.03-5.39 12.03-12.03.001-6.641-5.389-12.03-12.03-12.03z"></path>
  </symbol>
  <symbol xmlns="http://www.w3.org/2000/svg" viewBox="0 0 459 459" id="filter">
    <path d="M178.5 382.5h102v-51h-102v51zM0 76.5v51h459v-51H0zM76.5 255h306v-51h-306v51z"></path>
  </symbol>
</svg>